<?xml version="1.0" standalone="no"?>
<!DOCTYPE svg PUBLIC "-//W3C//DTD SVG 20010904//EN"
 "http://www.w3.org/TR/2001/REC-SVG-20010904/DTD/svg10.dtd">
<svg version="1.0" xmlns="http://www.w3.org/2000/svg"
 width="512.000000pt" height="512.000000pt" viewBox="0 0 512.000000 512.000000"
 preserveAspectRatio="xMidYMid meet">
<metadata>
Created by potrace 1.11, written by Peter Selinger 2001-2013
</metadata>
<g transform="translate(0.000000,512.000000) scale(0.100000,-0.100000)"
fill="#000000" stroke="none">
<path d="M950 4283 c-43 -7 -153 -45 -190 -66 -68 -37 -180 -135 -180 -156 0
-5 -8 -15 -17 -22 -9 -8 -29 -42 -45 -77 -60 -133 -58 -71 -55 -1432 2 -1160
4 -1248 20 -1290 78 -200 199 -320 382 -382 l70 -23 1625 0 1625 0 69 23 c184
62 308 183 374 364 l27 73 3 1250 2 1250 -24 76 c-53 174 -173 306 -343 377
-28 12 -61 22 -72 22 -11 0 -23 4 -26 10 -6 9 -3189 12 -3245 3z m3025 -248
c1 -57 -3 -63 -43 -76 -39 -12 -98 -45 -120 -66 -8 -7 -18 -11 -23 -8 -5 4 -6
-1 -3 -9 3 -9 2 -16 -4 -16 -13 0 -61 -74 -78 -122 -70 -198 37 -427 223 -477
25 -7 42 -18 45 -29 2 -9 3 -233 2 -497 -1 -506 -1 -511 -50 -622 -60 -135
-201 -303 -256 -303 -44 0 -68 -14 -178 -105 -182 -149 -198 -164 -208 -193
-37 -107 75 -214 173 -164 25 13 219 163 235 182 3 3 22 19 43 35 36 26 55 55
63 95 2 8 38 51 81 95 120 123 191 241 238 392 l27 85 0 508 0 507 60 29 c64
30 126 86 163 144 88 140 68 336 -45 450 -53 52 -71 65 -128 85 l-52 19 0 48
c0 54 4 56 71 33 64 -23 134 -78 174 -138 69 -105 66 -23 63 -1379 l-3 -1223
-23 -50 c-32 -67 -82 -126 -139 -163 -102 -65 5 -61 -1728 -60 -1528 0 -1578
0 -1633 19 -72 24 -146 80 -189 143 -67 98 -64 24 -61 1377 l3 1224 22 48 c48
102 127 173 230 206 56 18 118 19 1553 17 l1495 -1 0 -40z m-3 -207 c9 -29 2
-442 -8 -445 -5 -2 -31 11 -57 27 -106 71 -132 233 -54 343 19 28 92 87 107
87 5 0 10 -6 12 -12z m241 -29 c112 -93 105 -293 -15 -379 -22 -17 -45 -30
-49 -30 -4 0 -8 101 -8 224 -1 214 0 224 18 219 10 -2 34 -18 54 -34z"/>
<path d="M2257 3944 c-1 -1 -34 -4 -74 -8 -208 -17 -425 -95 -623 -224 -105
-68 -294 -257 -367 -365 -99 -147 -190 -368 -212 -517 -5 -36 -12 -82 -16
-104 -4 -33 -9 -261 -5 -276 2 -7 7 -35 20 -110 6 -36 20 -96 30 -134 11 -38
17 -73 13 -79 -3 -6 -1 -7 4 -4 6 4 14 -5 18 -20 11 -45 84 -189 137 -270 61
-93 138 -186 194 -233 23 -19 39 -38 37 -42 -2 -5 0 -8 5 -8 6 0 34 -19 64
-43 194 -156 444 -256 703 -283 629 -66 1232 324 1432 926 13 41 26 82 28 90
4 19 25 133 34 185 8 44 6 268 -3 330 -48 351 -220 657 -496 887 -158 131
-394 240 -610 283 -59 12 -304 27 -313 19z m118 -1230 c51 -21 83 -61 91 -113
14 -90 -60 -170 -154 -165 -99 6 -163 110 -122 200 35 79 109 110 185 78z"/>
<path d="M974 1529 c-53 -27 -77 -62 -82 -123 -3 -42 1 -57 21 -88 14 -20 25
-38 24 -40 -1 -2 0 -2 2 -1 2 1 17 -5 34 -14 73 -37 182 7 205 85 39 128 -87
240 -204 181z"/>
</g>
</svg>
